<svg version="1.2" xmlns="http://www.w3.org/2000/svg" viewBox="0 0 32 32" width="32" height="32">
	<defs>
		<clipPath clipPathUnits="userSpaceOnUse" id="cp1">
			<path d="m32 0v32h-32v-32z"/>
		</clipPath>
	</defs>
	<style>
		.s0 { fill: #763e1a } 
		.s1 { fill: #cc6228 } 
		.s2 { fill: #f5841f } 
		.s3 { fill: none;stroke: #233447;stroke-miterlimit:100;stroke-width: 1.7 } 
	</style>
	<g id="Clip-Path: aura-logo_svg__Layer_1" clip-path="url(#cp1)">
		<g id="aura-logo_svg__Layer_1">
		</g>
		<path id="Shape 2" fill-rule="evenodd" class="s0" d="m16.11 31.2c-8.35 0-15.09-6.83-15.09-15.27 0-8.45 6.74-15.28 15.09-15.28 8.34 0 15.09 6.83 15.09 15.28 0 8.44-6.75 15.27-15.09 15.27z"/>
		<path id="Color Fill 1" class="s1" d="m6.4 11.71c0 0-1.2 2.97 2.32 6.66 3.51 3.7 6.66 3.22 10 1.73 3.41-1.51 6.07-7.51 3.15-12.77-1.71-3.08-1.48-3.17 0.57-2.08 5.37 2.88 9.78 11.87 4.12 20.61-2.46 3.81-5.84 5.05-11.21 5.49-6.6 0.53-16.24-7.94-14.04-16.8 2.2-8.87 3.29-8.93 4.65-8.37 1.37 0.56 1.79 1.45 1.31 3.13-0.47 1.68-0.87 2.4-0.87 2.4z"/>
		<path id="Layer 1" class="s2" d="m8.56 16.45c-0.35 2.86 1.21 7.83 7.3 8.59 6.09 0.77 4.44 1.01 4.44 1.01 0 0-9.85 4.26-15.77-4.18-4.34-6.2 0.25-15.82 1.35-16.59 3.69-2.55 12.02-2.92 14.42 3.53 1.09 2.94 0.01 5.7-2.77 8.4-2.02 1.95-0.98 0.21-0.73-0.85 0.32-1.35 1.29-6.07-4.43-5.32-2.29 0.3-3.47 2.56-3.81 5.41z"/>
		<path id="Shape 1" fill-rule="evenodd" class="s3" d="m16 31.04c-8.31 0-15.04-6.73-15.04-15.04 0-8.31 6.73-15.04 15.04-15.04 8.31 0 15.04 6.73 15.04 15.04 0 8.31-6.73 15.04-15.04 15.04z"/>
	</g>
</svg>