<svg version="1.2" xmlns="http://www.w3.org/2000/svg" viewBox="0 0 125 125" >
	<defs>
		<clipPath clipPathUnits="userSpaceOnUse" id="cp1">
			<path d="m125 0v125h-125v-125z"/>
		</clipPath>
	</defs>
	<style>
		.s0 { fill: #763e1a } 
		.s1 { fill: #cc6228 } 
		.s2 { fill: #f5841f } 
		.s3 { fill: none;stroke: #233447;stroke-miterlimit:100;stroke-width: 6.8 } 
	</style>
	<g id="Clip-Path: aura-logo_svg__Layer_1" clip-path="url(#cp1)">
		<g id="aura-logo_svg__Layer_1">
		</g>
		<path id="Shape 2" fill-rule="evenodd" class="s0" d="m62.93 121.88c-32.6 0-58.95-26.67-58.95-59.66 0-33 26.35-59.66 58.95-59.66 32.59 0 58.95 26.66 58.95 59.66 0 32.99-26.36 59.66-58.95 59.66z"/>
		<path id="Color Fill 1" class="s1" d="m25 45.74c0 0-4.67 11.61 9.05 26.03 13.72 14.42 26.01 12.57 39.09 6.76 13.32-5.92 23.7-29.36 12.29-49.9-6.68-12.02-5.78-12.39 2.21-8.11 20.98 11.23 38.23 46.34 16.11 80.51-9.61 14.85-22.82 19.71-43.81 21.41-25.76 2.09-63.41-30.99-54.83-65.62 8.59-34.64 12.85-34.86 18.19-32.67 5.34 2.18 6.96 5.65 5.11 12.21-1.85 6.57-3.41 9.38-3.41 9.38z"/>
		<path id="Layer 1" class="s2" d="m33.43 64.27c-1.35 11.15 4.74 30.59 28.52 33.56 23.79 2.98 17.33 3.94 17.33 3.94 0 0-38.47 16.63-61.58-16.35-16.96-24.22 0.95-61.78 5.29-64.78 14.38-9.96 46.95-11.43 56.29 13.77 4.26 11.48 0.07 22.27-10.81 32.81-7.87 7.63-3.82 0.84-2.84-3.3 1.24-5.3 5.05-23.74-17.32-20.79-8.95 1.18-13.53 10-14.88 21.14z"/>
		<path id="Shape 1" fill-rule="evenodd" class="s3" d="m62.5 121.23c-32.48 0-58.73-26.25-58.73-58.73 0-32.48 26.25-58.73 58.73-58.73 32.48 0 58.73 26.25 58.73 58.73 0 32.48-26.25 58.73-58.73 58.73z"/>
	</g>
</svg>